#!OML:ASF Y:\EmotionMaleHayes\Project 1\Capture day 1\Session 1\Male1.ASF
:FULLY-SPECIFIED
:DEGREES
906
root 45.7425 17.1221 -0.884516 1103.78 80.8187 1108.35
lowerback 2.63475 2.45045 -4.9604
upperback 0.60615 3.14082 -1.35681
thorax -1.04183 1.59126 1.26557
lowerneck -18.8124 -5.97716 -4.32842
upperneck 20.7642 -6.9527 0.0769514
head 9.85835 -3.51835 -0.228558
rclavicle -4.24281e-015 2.18663e-015
rhumerus -43.0169 4.99566 -86.805
rradius 32.448
rwrist 2.49268
rhand -8.38171 -31.4422
rfingers 7.12502
rthumb 17.5415 -60.6708
lclavicle -4.24281e-015 2.18663e-015
lhumerus -34.2979 -13.6434 83.1845
lradius 35.4702
lwrist -2.93729
lhand -15.4714 -22.3624
lfingers 7.12502
lthumb 10.7101 7.34461
rfemur 17.1705 3.82184 5.88397
rtibia 25.5678
rfoot -4.08392 5.06004
rtoes 5.10737
lfemur 10.2632 5.87366 -22.7202
ltibia 1.47166
lfoot -7.4401 5.75604
ltoes 6.75325
907
root 45.7896 17.1159 -0.916942 1107.57 80.5417 1112.16
lowerback 2.74013 2.38458 -5.69575
upperback 0.524697 3.02416 -1.52702
thorax -1.20598 1.54178 1.49649
lowerneck -18.7355 -5.83693 -3.98284
upperneck 20.7862 -6.74474 -0.395931
head 9.81561 -3.45066 -0.415296
rclavicle -4.73542e-014 8.54774e-015
rhumerus -43.1865 4.92286 -86.5753
rradius 32.2664
rwrist 2.39352
rhand -7.90438 -32.0566
rfingers 7.12502
rthumb 18.0008 -61.2436
lclavicle -4.73542e-014 8.54774e-015
lhumerus -34.0335 -13.6585 83.037
lradius 35.8581
lwrist -2.55654
lhand -15.0032 -22.3236
lfingers 7.12502
lthumb 11.1617 7.35952
rfemur 16.5931 3.37574 4.69219
rtibia 26.9365
rfoot -3.72292 5.25523
rtoes 2.38278
lfemur 10.3835 6.01431 -23.6841
ltibia 1.5256
lfoot -7.54941 5.52048
ltoes 6.63182
908
root 45.8384 17.1099 -0.952718 1112.42 80.2044 1117.09
lowerback 2.6514 2.28324 -6.59198
upperback 0.612082 2.88086 -1.75151
thorax -1.08761 1.47164 1.77506
lowerneck -19.1132 -5.88793 -3.76467
upperneck 21.0516 -6.76737 -0.7849
head 9.95605 -3.48728 -0.605242
rclavicle 4.74598e-015 -9.93923e-016
rhumerus -43.1642 4.64279 -86.2368
rradius 32.1297
rwrist 2.39631
rhand -7.83306 -32.1407
rfingers 7.12502
rthumb 18.0695 -61.3214
lclavicle 4.74598e-015 -9.93923e-016
lhumerus -33.4893 -13.7181 82.9081
lradius 36.1581
lwrist -2.12522
lhand -14.8138 -22.445
lfingers 7.12502
lthumb 11.3443 7.22817
rfemur 16.17 2.88522 3.19753
rtibia 27.8039
rfoot -2.94089 5.41447
rtoes 2.04727
lfemur 10.5348 6.201 -24.9097
ltibia 1.50095
lfoot -7.62753 5.24254
ltoes 7.45908
909
root 45.8836 17.1086 -0.993637 1117.9 79.7252 1122.54
lowerback 2.47357 2.17245 -7.61402
upperback 0.680112 2.73489 -2.02405
thorax -0.938312 1.39948 2.07548
lowerneck -18.6392 -5.76934 -4.10748
upperneck 20.4242 -6.67481 -0.176798
head 9.68168 -3.40571 -0.300444
rclavicle 4.16827e-015 -1.74931e-014
rhumerus -43.242 4.37031 -85.9034
rradius 32.1408
rwrist 2.46993
rhand -8.29476 -31.7974
rfingers 7.12502
rthumb 17.6252 -61.0185
lclavicle 4.16827e-015 -1.74931e-014
lhumerus -32.9331 -13.8278 82.8577
lradius 36.3995
lwrist -1.9373
lhand -14.995 -22.5252
lfingers 7.12502
lthumb 11.1696 7.15752
rfemur 15.5912 2.43355 1.44191
rtibia 29.1506
rfoot -2.39521 5.7021
rtoes 5.24022
lfemur 10.4654 6.51961 -26.3653
ltibia 1.61074
lfoot -7.71915 4.8557
ltoes 7.98699
910
root 45.9308 17.0982 -1.01148 1117.39 79.5536 1122.15
lowerback 2.49402 2.17875 -7.88906
upperback 0.730205 2.73799 -1.97038
thorax -0.913152 1.39962 2.28297
lowerneck -18.8936 -5.86769 -4.20416
upperneck 20.73 -6.75309 -0.247143
head 9.83956 -3.45488 -0.33387
rclavicle -1.69122e-014 3.3694e-014
rhumerus -43.3685 4.28708 -85.6869
rradius 32.142
rwrist 2.32817
rhand -8.45521 -32.1143
rfingers 7.12502
rthumb 17.4708 -61.3492
lclavicle -1.69122e-014 3.3694e-014
lhumerus -32.5687 -13.88 82.791
lradius 36.6466
lwrist -1.96476
lhand -15.1327 -22.4836
lfingers 7.12502
lthumb 11.0367 7.2062
rfemur 14.9445 2.10059 1.21774
rtibia 30.2748
rfoot -1.86156 5.41888
rtoes -1.70928
lfemur 10.7792 6.8458 -26.3344
ltibia 1.56148
lfoot -7.84005 4.69256
ltoes 7.59132
911
root 45.9676 17.0937 -1.03933 1114.66 79.7529 1119.31
lowerback 2.60333 2.163 -7.39883
upperback 0.588978 2.7052 -1.8227
thorax -1.10322 1.3889 2.15754
lowerneck -18.441 -5.74992 -4.23194
upperneck 20.5636 -6.59698 -0.258234
head 9.6956 -3.38809 -0.294151
rclavicle 1.99437e-014 1.38155e-014
rhumerus -43.6264 4.03406 -85.4046
rradius 32.1875
rwrist 2.25727
rhand -7.42858 -33.316
rfingers 7.12502
rthumb 18.4586 -62.4602
lclavicle 1.99437e-014 1.38155e-014
lhumerus -32.4088 -14.049 82.7655
lradius 36.9518
lwrist -1.87039
lhand -15.2303 -22.395
lfingers 7.12502
lthumb 10.9426 7.29987
rfemur 14.1024 2.32604 1.84417
rtibia 31.6057
rfoot -1.1794 4.98194
rtoes 6.15361
lfemur 10.8777 6.96161 -25.7659
ltibia 1.48758
lfoot -7.95729 4.61919
ltoes 7.35924
